<svg width="512" height="512" viewBox="0 0 512 512" fill="none" xmlns="http://www.w3.org/2000/svg">
<g clip-path="url(#clip0_1232_412)">
<path d="M267.418 299.962V375H-61.4609V320.982L-17.6337 259.35L152.9 19.5489H19.2253L-5.0828 -50.2748H267.001V-1.47099L243.635 31.3523L52.4253 299.962H267.418Z" fill="white" fill-opacity="0.07"/>
<path d="M-195.624 -150.04L-227.252 -52.5858H-136.858L-114.346 18.225H-250.233L-272.128 85.6652L-281.996 116.055H-379L-338.227 -2.32125L-295.309 -126.875L-231.194 -313H-114.547L-96.0717 -259.271L-76.0407 -201.056L33.0439 116.055H-63.9604L-158.31 -175.165L-171.195 -214.955H-174.547L-195.624 -150.04Z" fill="white" fill-opacity="0.07"/>
<path d="M423.376 267.96L391.748 365.414H482.142L504.654 436.225H368.767L346.872 503.665L337.004 534.055H240L280.773 415.679L323.691 291.125L387.806 105H504.453L522.928 158.729L542.959 216.944L652.044 534.055H555.04L460.69 242.835L447.805 203.045H444.453L423.376 267.96Z" fill="white" fill-opacity="0.07"/>
<path d="M200.835 584.823H135.932C99.3326 506.6 20.3451 452.472 -71.2068 452.472C-73.3142 452.472 -75.4216 452.499 -77.5157 452.566L-97.8027 393.254C-89.0397 392.448 -80.1699 392.032 -71.2068 392.032C54.1435 392.032 160.861 472.431 200.835 584.823Z" fill="white" fill-opacity="0.07"/>
<path d="M-220.624 503.96L-252.252 601.414H-161.858L-139.346 672.225H-275.233L-297.128 739.665L-306.996 770.055H-404L-363.227 651.679L-320.309 527.125L-256.194 341H-139.547L-121.072 394.729L-101.041 452.944L8.04395 770.055H-88.9604L-183.31 478.835L-196.195 439.045H-199.547L-220.624 503.96Z" fill="white" fill-opacity="0.07"/>
<path d="M488.638 15.2552V75.2974C378.717 63.4346 287.152 -8.37777 248.594 -106.153H314.996C348.663 -41.7154 412.747 4.86198 488.638 15.2552Z" fill="white" fill-opacity="0.07"/>
<path d="M836.418 56.9618V132H507.539V77.9817L551.366 16.3504L721.9 -223.451H588.225L563.917 -293.275H836.001V-244.471L812.635 -211.648L621.425 56.9618H836.418Z" fill="white" fill-opacity="0.07"/>
<path opacity="0.6" d="M395 203H360.662C341.298 161.614 299.508 132.977 251.071 132.977C249.956 132.977 248.841 132.991 247.733 133.027L237 101.647C241.636 101.22 246.329 101 251.071 101C317.39 101 373.851 143.537 395 203Z" fill="white"/>
<path opacity="0.6" d="M233 376.233V408C174.844 401.724 126.4 363.73 106 312H141.132C158.943 346.092 192.849 370.735 233 376.233Z" fill="white"/>
<path d="M417 398.3V438H243V409.421L266.188 376.813L356.412 249.942H285.689L272.828 213H416.779V238.821L404.417 256.186L303.254 398.3H417Z" fill="white"/>
<path d="M172.019 160.217L155.285 211.777H203.11L215.02 249.241H143.127L131.543 284.922L126.322 301H75L96.5716 238.371L119.278 172.473L153.2 74H214.914L224.689 102.427L235.287 133.226L293 301H241.678L191.76 146.924L184.943 125.873H183.17L172.019 160.217Z" fill="white"/>
</g>
<defs>
<clipPath id="clip0_1232_412">
<rect width="512" height="512" fill="white"/>
</clipPath>
</defs>
</svg>
