<svg width="27" height="31" viewBox="0 0 27 31" fill="none" xmlns="http://www.w3.org/2000/svg">
<path d="M20.5699 20.5106C20.5723 22.1618 20.1848 23.8095 19.4449 25.2774C19.3635 25.4378 19.2791 25.5969 19.19 25.753H19.1894C17.9758 27.8987 15.9921 29.5759 13.6952 30.3916C7.37921 32.7702 0.208012 27.8678 0.017248 21.0164C-0.0213803 20.5644 0.0190309 0.493749 0.00476813 0H5.12688V11.453C7.66447 9.88709 11.2468 9.59362 14.0322 10.7572C12.2184 11.8203 10.7292 13.3936 9.75336 15.2844C7.15398 15.5567 5.12688 17.7925 5.12688 20.5106C5.10133 26.0053 12.5495 27.7637 14.9123 22.8426H14.9129C15.1685 22.3198 15.3355 21.7516 15.4074 21.1725C15.4864 20.5541 15.4496 19.8861 15.3081 19.2895C15.8323 17.3956 17.5604 16.0099 19.5864 16.0354C20.2175 17.392 20.5705 18.9095 20.5705 20.5106H20.5699Z" fill="white"/>
<path fill-rule="evenodd" clip-rule="evenodd" d="M26.4764 12.7842L22.3622 16.1122C22.0651 15.9143 21.7466 15.7461 21.4108 15.6136C19.0039 14.6092 16.0248 15.7836 14.9129 18.1786H14.9123C14.3786 19.2605 14.2396 20.5608 14.5177 21.7316C13.9936 23.6249 12.2654 25.0112 10.2395 24.9858C5.59814 14.5408 18.0519 5.18921 26.4764 12.7842Z" fill="white"/>
<path fill-rule="evenodd" clip-rule="evenodd" d="M27 27.7135C25.1262 29.7254 22.4757 30.9803 19.5376 30.9803C18.2159 30.9803 16.9531 30.7262 15.7924 30.2639C17.6062 29.2008 19.0955 27.6276 20.0719 25.7373C21.1743 25.6217 22.1738 25.1528 22.9589 24.4442L27 27.7135Z" fill="white"/>
</svg>
